<?xml version="1.0" standalone="no"?>
<!DOCTYPE svg PUBLIC "-//W3C//DTD SVG 20010904//EN"
 "http://www.w3.org/TR/2001/REC-SVG-20010904/DTD/svg10.dtd">
<svg version="1.0" xmlns="http://www.w3.org/2000/svg"
 width="48.000000pt" height="48.000000pt" viewBox="0 0 48.000000 48.000000"
 preserveAspectRatio="xMidYMid meet">

<g transform="translate(0.000000,48.000000) scale(0.100000,-0.100000)"
fill="#000000" stroke="none">
<path d="M108 421 c-32 -20 -53 -44 -72 -82 -42 -86 -31 -171 32 -241 71 -79
171 -99 268 -54 143 67 172 260 54 360 -17 14 -37 26 -43 27 -7 0 -30 2 -52 4
-22 2 -31 1 -20 -2 47 -12 85 -36 85 -54 0 -11 7 -19 15 -19 18 0 43 -37 51
-77 5 -25 2 -31 -14 -35 -16 -5 -21 0 -26 27 -8 40 -70 100 -115 110 -71 15
-142 -23 -173 -92 -20 -45 -48 -58 -48 -22 0 37 31 89 52 89 14 0 18 5 14 15
-7 18 47 55 81 55 12 0 25 5 28 10 14 23 -72 9 -117 -19z m202 -106 c11 -10
22 -33 26 -52 19 -100 -97 -164 -168 -92 -28 27 -30 34 -24 77 8 66 43 96 103
89 24 -2 53 -13 63 -22z m-216 -119 c8 -33 70 -87 110 -96 74 -16 142 18 175
90 16 35 51 51 51 24 0 -28 -28 -79 -58 -107 -57 -52 -122 -74 -122 -41 0 9
-6 14 -12 11 -7 -2 -12 -10 -11 -16 6 -26 -93 6 -103 34 -3 8 -12 15 -19 15
-16 0 -40 37 -53 82 -9 33 -8 35 13 30 13 -2 26 -13 29 -26z"/>
<path d="M175 270 c-4 -11 -4 -33 0 -49 6 -28 8 -29 66 -29 54 0 60 2 65 24
10 38 -3 74 -26 74 -11 0 -20 -4 -20 -10 0 -6 -9 -6 -26 0 -38 15 -52 12 -59
-10z m62 -52 c-3 -7 -5 -2 -5 12 0 14 2 19 5 13 2 -7 2 -19 0 -25z m40 10 c-3
-8 -6 -5 -6 6 -1 11 2 17 5 13 3 -3 4 -12 1 -19z"/>
<path d="M230 409 c0 -5 5 -7 10 -4 6 3 10 8 10 11 0 2 -4 4 -10 4 -5 0 -10
-5 -10 -11z"/>
</g>
</svg>
